# xmcd CD database file
#
# Track frame offsets:
#	182
#	18317
#	36380
#
# Disc length: 704 seconds
#
# Revision: 1
# Processed by: cddbd v1.5.2PL0 Copyright (c) Steve Scherf et al.
# Submitted via: CDex 1.51
#
DISCID=1d02be03
DTITLE=Edyta Gorniak - Anything (maxi cd)
DYEAR=1997
DGENRE=Pop
TTITLE0=Anything
TTITLE1=That's The Way I Feel About You
TTITLE2=Hunting High And Low
EXTD=YEAR: 1997
EXTT0=
EXTT1=
EXTT2=
PLAYORDER=
